{"asset":{"version":"2.0"},"scene":0,"scenes":[{"nodes":[0,1,2,3,4,5],"extensions":{}}],"nodes":[{"mesh":0,"translation":[-591.3549,0,-235.566422],"rotation":[0,0.0574121475,0,0.9983506],"scale":[706.8262,1,629.521545],"name":"boundaries"},{"mesh":0,"translation":[-590.8062,0,-230.813721],"rotation":[0,0.05741215,0,0.9983506],"scale":[482.672821,0.6828735,429.883575],"name":"boundaries-mobile"},{"mesh":1,"translation":[-690.079346,0.0000495910645,-160.019577],"rotation":[0,0.057412155,0,0.9983506],"scale":[1.6579994,1,1.6579994],"name":"ui_label_low"},{"mesh":2,"translation":[-478.0188,0.0000495910645,-184.490463],"rotation":[0,0.057412155,0,0.9983506],"scale":[1.6579994,1,1.6579994],"name":"ui_label_high"},{"mesh":3,"translation":[-699.778748,-1.93833217e-13,-244.07312],"rotation":[0,0.0574121438,0,0.9983506],"scale":[1.21098435,1,1.21098435],"name":"ui_icon_low"},{"mesh":4,"translation":[-487.7182,-1.93833217e-13,-268.543976],"rotation":[0,0.0574121438,0,0.9983506],"scale":[1.21098435,1,1.21098435],"name":"ui_icon_high"}],"meshes":[{"primitives":[{"attributes":{"POSITION":1,"NORMAL":2,"TEXCOORD_0":3},"indices":0}],"name":"boundaries"},{"primitives":[{"attributes":{"POSITION":5,"NORMAL":6,"TEXCOORD_0":7},"indices":4}],"name":"ui_label_low"},{"primitives":[{"attributes":{"POSITION":9,"NORMAL":10,"TEXCOORD_0":11},"indices":8}],"name":"ui_label_high"},{"primitives":[{"attributes":{"POSITION":13,"NORMAL":14,"TEXCOORD_0":15},"indices":12}],"name":"ui_icon_low"},{"primitives":[{"attributes":{"POSITION":17,"NORMAL":18,"TEXCOORD_0":19},"indices":16}],"name":"ui_icon_high"}],"accessors":[{"bufferView":0,"componentType":5123,"count":6,"type":"SCALAR","name":"accessorIndices"},{"bufferView":1,"componentType":5126,"count":6,"max":[0.49999997,0,0.50000006],"min":[-0.49999994,0,-0.5],"type":"VEC3","name":"accessorPositions"},{"bufferView":1,"byteOffset":72,"componentType":5126,"count":6,"type":"VEC3","name":"accessorNormals"},{"bufferView":2,"componentType":5126,"count":6,"type":"VEC2","name":"accessorUVs"},{"bufferView":0,"byteOffset":12,"componentType":5123,"count":6,"type":"SCALAR","name":"accessorIndices"},{"bufferView":1,"byteOffset":144,"componentType":5126,"count":6,"max":[43.2042236,-0.0000495910645,10.673996],"min":[-43.2043152,-0.0000495910645,-10.6740265],"type":"VEC3","name":"accessorPositions"},{"bufferView":1,"byteOffset":216,"componentType":5126,"count":6,"type":"VEC3","name":"accessorNormals"},{"bufferView":2,"byteOffset":48,"componentType":5126,"count":6,"type":"VEC2","name":"accessorUVs"},{"bufferView":0,"byteOffset":24,"componentType":5123,"count":6,"type":"SCALAR","name":"accessorIndices"},{"bufferView":1,"byteOffset":288,"componentType":5126,"count":6,"max":[43.2042542,-0.0000495910645,10.6740112],"min":[-43.2042847,-0.0000495910645,-10.6740112],"type":"VEC3","name":"accessorPositions"},{"bufferView":1,"byteOffset":360,"componentType":5126,"count":6,"type":"VEC3","name":"accessorNormals"},{"bufferView":2,"byteOffset":96,"componentType":5126,"count":6,"type":"VEC2","name":"accessorUVs"},{"bufferView":0,"byteOffset":36,"componentType":5123,"count":6,"type":"SCALAR","name":"accessorIndices"},{"bufferView":1,"byteOffset":432,"componentType":5126,"count":6,"max":[50,0,50.0000153],"min":[-50.00006,0,-50],"type":"VEC3","name":"accessorPositions"},{"bufferView":1,"byteOffset":504,"componentType":5126,"count":6,"type":"VEC3","name":"accessorNormals"},{"bufferView":2,"byteOffset":144,"componentType":5126,"count":6,"type":"VEC2","name":"accessorUVs"},{"bufferView":0,"byteOffset":48,"componentType":5123,"count":6,"type":"SCALAR","name":"accessorIndices"},{"bufferView":1,"byteOffset":576,"componentType":5126,"count":6,"max":[50.00003,0,50.0000153],"min":[-50,0,-50],"type":"VEC3","name":"accessorPositions"},{"bufferView":1,"byteOffset":648,"componentType":5126,"count":6,"type":"VEC3","name":"accessorNormals"},{"bufferView":2,"byteOffset":192,"componentType":5126,"count":6,"type":"VEC2","name":"accessorUVs"}],"bufferViews":[{"buffer":0,"byteLength":60,"name":"bufferViewScalar"},{"buffer":0,"byteOffset":60,"byteLength":720,"byteStride":12,"name":"bufferViewFloatVec3"},{"buffer":0,"byteOffset":780,"byteLength":240,"byteStride":8,"name":"bufferViewFloatVec2"}],"buffers":[{"uri":"regulation1.bin","byteLength":1020}]}