<svg version="1" xmlns="http://www.w3.org/2000/svg" width="682.667" height="682.667" viewBox="0 0 512.000000 512.000000"><path d="M482 88.6c-19.5 3.7-37.1 18.5-30.9 26 3 3.7 6.9 4.6 16.8 4.2 8.4-.4 10.7-.9 18.3-4.2 9.2-4 16.8-9.8 19.4-14.8 2-3.8.5-8-3.4-9.8-2.8-1.3-15.8-2.2-20.2-1.4zM392 110.8c-7.5 2.5-17.1 7.7-20.9 11.4-9.4 9.2 4.1 16.9 22 12.4 8.4-2.1 19.9-7.8 23.7-11.7 4.4-4.5 4.9-7.6 1.7-10.8-2.3-2.4-3.3-2.6-11.8-2.8-6.7-.2-10.7.2-14.7 1.5zM313 137.3c-8.3 2.8-15.2 6.9-21.2 12.5-8.8 8.3-5.1 15.2 8.1 15.2 9.9 0 25.5-5.9 34-12.8 6.3-5 7-6.1 7.1-10.4 0-3.2-.5-4-3-5.3-4.4-2.3-17-1.9-25 .8zM231.5 169.3c-5.9 2-8.2 3.4-12 7.5-4.6 4.9-5.8 8.9-5.3 17.4.3 6.4.7 7.3 3.5 9.9 7.8 6.9 23.8 6.4 34-1 7.2-5.2 11.3-19.1 7.8-26.4-2.6-5.6-7.4-8-16.4-8.4-4.5-.2-9.2.3-11.6 1zM358.4 178.9c-8.2 1.4-9.2 2.9-36.4 51.7-14 25.3-37.1 66.8-51.3 92.4-43.1 77.4-42.9 76.9-42.5 79.2.3 2.3.6 2.3 16 2.6l15.6.2 2-3.2c1-1.8 4.5-8.3 7.7-14.3 3.2-6.1 6.8-12.8 8-15 1.2-2.2 3.8-6.9 5.7-10.5 13.4-25.2 15.1-27.8 18.2-29.5 2.7-1.4 7.2-1.6 38.1-1.3l35 .3 1.1 2.5c.7 1.4 1.7 8.8 2.3 16.5 2 24.5 4 45.9 4.7 50.2l.7 4.3h20.2c17 0 20.5-.2 21.5-1.5 1.4-1.7.9-17.2-1-28.9-.5-3.3-1.6-12.9-2.5-21.1-.9-8.3-2-18.4-2.5-22.5-.6-4.1-1.5-12-2-17.5-.6-5.5-1.8-16.1-2.6-23.5-.8-7.4-2.1-19.4-2.9-26.5-.8-7.2-1.9-16.8-2.4-21.5-1.5-12-3.7-31.6-5.1-44.5-1.3-11.5-3-16.9-5.8-18-2.4-1-34.9-1.5-39.8-.6zm7.1 38.3c.3.7.9 6.5 1.5 12.8.6 6.3 1.7 18.2 2.5 26.5 3.3 33.8 3.9 44.3 2.5 46-1.1 1.3-4.8 1.5-27.9 1.3-31.5-.3-29.9.6-22.3-13.9 16.3-31.1 37.7-70.7 39-72.2 1.8-2 4.1-2.2 4.7-.5zM168 217.8c-11.6 4.4-21.4 11.6-24.9 18.5-3.4 6.4 3.6 11.3 14.9 10.4 11.7-1 29-9.6 33.5-16.6 4.2-6.6 3.9-10.2-1.2-12.9-3.2-1.8-17-1.3-22.3.6zM209.4 237c-1.2.5-2.4 1.2-2.7 1.7-.3.4-3.7 15.9-7.6 34.3-4 18.4-7.8 36.2-8.5 39.5-.8 3.3-2.1 9.6-3.1 14-.9 4.4-2.3 10.7-3 14-.8 3.3-2.1 9.4-2.9 13.5-.9 4.1-2.2 10.6-3.1 14.5-5.9 27-6.9 33.3-5.6 34.9 1.1 1.3 4.1 1.6 18.6 1.6 15.1 0 17.4-.2 18.8-1.8 1.5-1.6 4.1-13 21.8-96.7 3.8-18.2 7.6-36 8.4-39.8 5.6-25.7 5.7-26 3.9-28.6-1.4-2-2.3-2.1-17.2-2-8.6 0-16.7.4-17.8.9zM112 267.6c-12.3 3.4-26.1 12.6-30.9 20.6-4.7 7.8.6 13.8 12.4 13.8 12.1 0 25.9-6.2 35.8-16.1 6.3-6.3 6.7-7 6.7-11.3 0-3.8-.4-4.8-2.7-6.3-3.5-2.3-14.2-2.7-21.3-.7zM69 323.9c-16 4.3-33.6 17.3-35.6 26.3-.8 3.7 1.7 7.5 6.1 9.4 10.9 4.5 33.3-2.5 45.8-14.5 6.4-6.1 8.7-9.6 8.7-13.5 0-4.2-1.1-5.7-5.7-7.7-5.4-2.3-10.7-2.3-19.3 0zM44.2 382c-9.5 2.5-19.5 7.8-26.6 14.2-6 5.3-12.6 14.6-12.6 17.7 0 2.2 6.3 8.9 9.7 10.2 13.3 5 43.7-8.6 53.5-24 5.4-8.6 2.6-16.4-6.8-19-5.3-1.5-8.7-1.3-17.2.9z"/></svg>