<?xml version="1.0" encoding="utf-8"?>
<!-- Generator: Adobe Illustrator 23.0.3, SVG Export Plug-In . SVG Version: 6.00 Build 0)  -->
<svg version="1.1" id="Layer_1" xmlns="http://www.w3.org/2000/svg" xmlns:xlink="http://www.w3.org/1999/xlink" x="0px" y="0px"
	 viewBox="0 0 130 166" style="enable-background:new 0 0 130 166;" xml:space="preserve">
<style type="text/css">
	.st0{fill:#FFFDFD;stroke:#000000;stroke-miterlimit:10;}
	.st1{display:none;}
</style>
<path class="st0" d="M116.8,48.2c-5.3-7.1-12.2-13-20-17.3C85.7,20.5,87.7,1.4,87.7,1.4L76,7.8l-11.7-6l3,20.4
	c-12.2-0.5-24.4,2.5-35,8.6C21.7,36.9,13.1,46.2,7.6,57.1c-6.9,13.7-8.4,30-4.4,44.8c4,14.8,13.6,28,26.3,36.6l-9,7.2l2.7,13.2
	l13.4,3.5c0,0,7.6-11.5,26.3-12.9c8.4,0.4,16.8-0.8,24.7-3.6c19.1-6.9,34.5-23.4,39.8-42.9C132.5,84.4,128.4,63.6,116.8,48.2z
	 M65.9,131c-24.8,0-45-20.1-45-45s20.2-45,45-45c24.8,0,45,20.1,45,45S90.7,131,65.9,131z"/>
<circle id="transport" class="st1" cx="113.1" cy="60" r="6.6"/>
<circle id="absorption" class="st1" cx="80.4" cy="26.4" r="6.6"/>
<circle id="regulation" class="st1" cx="29.6" cy="45.2" r="6.6"/>
<circle id="recycling" class="st1" cx="14.3" cy="101" r="6.6"/>
<circle id="loss" class="st1" cx="38.7" cy="146.1" r="6.6"/>
<circle id="storage" class="st1" cx="67.2" cy="84.5" r="6.6"/>
<circle id="usage" class="st1" cx="99.9" cy="128" r="6.6"/>
</svg>
